<svg xmlns="http://www.w3.org/2000/svg" viewBox="0 0 1024 1024">
    
  <defs>
    <linearGradient id="bg-29-dark" x1="0" y1="0" x2="1" y2="1"><stop offset="0" stop-color="#08282d"/><stop offset="1" stop-color="#111314"/></linearGradient>
    <linearGradient id="u-29-dark" x1="0" y1="0" x2="1" y2="1"><stop offset="0" stop-color="#9a6e00"/><stop offset=".58" stop-color="#ffcb31"/><stop offset="1" stop-color="#fff4b8"/></linearGradient>
    <linearGradient id="w-29-dark" x1="0" y1="0" x2="1" y2="1"><stop offset="0" stop-color="#075b9e"/><stop offset=".55" stop-color="#1ba2ff"/><stop offset="1" stop-color="#c9f0ff"/></linearGradient>
    <filter id="shadow-29-dark" x="-30%" y="-30%" width="160%" height="160%"><feDropShadow dx="0" dy="16" stdDeviation="15" flood-color="#000" flood-opacity=".25"/></filter>
    <filter id="blur-29-dark" x="-30%" y="-30%" width="160%" height="160%"><feGaussianBlur stdDeviation="9"/></filter>
  </defs>
    <rect x="58" y="58" width="908" height="908" rx="220" fill="url(#bg-29-dark)"/>
    <circle cx="280" cy="235" r="205" fill="#fff" opacity=".13" filter="url(#blur-29-dark)"/>
    <circle cx="744" cy="752" r="230" fill="#fff" opacity=".08" filter="url(#blur-29-dark)"/>
    <rect x="94" y="94" width="836" height="836" rx="198" fill="rgba(255,255,255,.17)" stroke="rgba(255,255,255,.34)" stroke-width="10" filter="url(#shadow-29-dark)"/>
    <path d="M170 178 C340 94 660 88 850 220" fill="none" stroke="#fff" stroke-width="18" stroke-linecap="round" opacity=".30"/>
    <path d="M315 230 H710 L654.7 775 H370.3 Z" fill="rgba(255,255,255,.10)" stroke="#f6fbff" stroke-width="29.625" opacity=".72" stroke-linejoin="round"/><path d="M350 320 H406" stroke="#f6fbff" stroke-width="18" stroke-linecap="round" opacity=".38"/><path d="M350 430 H406" stroke="#f6fbff" stroke-width="18" stroke-linecap="round" opacity=".38"/><path d="M350 540 H406" stroke="#f6fbff" stroke-width="18" stroke-linecap="round" opacity=".38"/><path d="M350 650 H406" stroke="#f6fbff" stroke-width="18" stroke-linecap="round" opacity=".38"/><path transform="translate(432 335) rotate(-5 105 105) scale(2.1)" d="M50 6 C70 32 86 50 86 68 C86 87 70 98 50 98 C30 98 14 87 14 68 C14 50 30 32 50 6 Z" fill="url(#u-29-dark)" opacity="1"/><path transform="translate(540 395) rotate(7 75 75) scale(1.5)" d="M50 6 C70 32 86 50 86 68 C86 87 70 98 50 98 C30 98 14 87 14 68 C14 50 30 32 50 6 Z" fill="url(#w-29-dark)" opacity="1"/><text x="512" y="730" text-anchor="middle" font-family="-apple-system,BlinkMacSystemFont,Segoe UI,sans-serif" font-size="78" font-weight="800" fill="#f6fbff" opacity=".46">ml</text>
  </svg>