<svg xmlns="http://www.w3.org/2000/svg" viewBox="0 0 1024 1024">
    
  <defs>
    <linearGradient id="bg-10-light" x1="0" y1="0" x2="1" y2="1">
      <stop offset="0" stop-color="#dff9fb"/>
      <stop offset="1" stop-color="#f9fbfd"/>
    </linearGradient>
    <linearGradient id="u-10-light" x1="0" y1="0" x2="1" y2="1">
      <stop offset="0" stop-color="#ffdf72"/>
      <stop offset=".52" stop-color="#f8bb11"/>
      <stop offset="1" stop-color="#fff2a8"/>
    </linearGradient>
    <linearGradient id="w-10-light" x1="0" y1="0" x2="1" y2="1">
      <stop offset="0" stop-color="#77caff"/>
      <stop offset=".55" stop-color="#1689df"/>
      <stop offset="1" stop-color="#bfe9ff"/>
    </linearGradient>
    <filter id="shadow-10-light" x="-30%" y="-30%" width="160%" height="160%">
      <feDropShadow dx="0" dy="14" stdDeviation="14" flood-color="#000" flood-opacity=".24"/>
    </filter>
    <filter id="soft-10-light" x="-30%" y="-30%" width="160%" height="160%">
      <feGaussianBlur stdDeviation="7"/>
    </filter>
  </defs>
    <rect x="62" y="62" width="900" height="900" rx="220" fill="url(#bg-10-light)"/>
    <circle cx="280" cy="260" r="180" fill="#fff" opacity=".12" filter="url(#soft-10-light)"/>
    <circle cx="760" cy="730" r="210" fill="#fff" opacity=".08" filter="url(#soft-10-light)"/>
    <rect x="94" y="94" width="836" height="836" rx="198" fill="rgba(255,255,255,.58)" stroke="rgba(8,64,70,.22)" stroke-width="10" filter="url(#shadow-10-light)"/>
    <path d="M160 180 C340 95 655 92 850 210" fill="none" stroke="#fff" stroke-width="18" stroke-linecap="round" opacity=".30"/>
    <circle cx="512" cy="512" r="300" fill="rgba(255,255,255,.58)" stroke="#0c3438" stroke-width="28" opacity=".70"/><path d="M512 235 L584 512 L512 790 L440 512 Z" fill="url(#u-10-light)" opacity=".90"/><path d="M235 512 L512 440 L790 512 L512 584 Z" fill="url(#w-10-light)" opacity=".76"/><circle cx="512" cy="512" r="52" fill="#0c3438" opacity=".72"/>
  </svg>