<svg xmlns="http://www.w3.org/2000/svg" viewBox="0 0 1024 1024">
  <defs>
    <linearGradient id="bg-21B-light" x1="0" y1="0" x2="1" y2="1">
      <stop offset="0" stop-color="#e7fbfc"/>
      <stop offset="1" stop-color="#ffffff"/>
    </linearGradient>
    <linearGradient id="urine-21B-light" x1="0" y1="0" x2="1" y2="1">
      <stop offset="0" stop-color="#ffe394"/>
      <stop offset=".58" stop-color="#f6b910"/>
      <stop offset="1" stop-color="#fff4b8"/>
    </linearGradient>
    <linearGradient id="water-21B-light" x1="0" y1="0" x2="1" y2="1">
      <stop offset="0" stop-color="#91d9ff"/>
      <stop offset=".55" stop-color="#168ee8"/>
      <stop offset="1" stop-color="#c9f0ff"/>
    </linearGradient>
    <radialGradient id="glassGlow-21B-light" cx=".28" cy=".20" r=".78">
      <stop offset="0" stop-color="#ffffff" stop-opacity=".58"/>
      <stop offset=".46" stop-color="#ffffff" stop-opacity=".10"/>
      <stop offset="1" stop-color="#ffffff" stop-opacity="0"/>
    </radialGradient>
    <filter id="softShadow-21B-light" x="-30%" y="-30%" width="160%" height="160%">
      <feDropShadow dx="0" dy="18" stdDeviation="18" flood-color="#000" flood-opacity=".22"/>
    </filter>
    <filter id="blur-21B-light" x="-30%" y="-30%" width="160%" height="160%">
      <feGaussianBlur stdDeviation="12"/>
    </filter>
  </defs>
  
    <rect x="58" y="58" width="908" height="908" rx="220" fill="url(#bg-21B-light)"/>
    <circle cx="280" cy="235" r="205" fill="#fff" opacity=".15" filter="url(#blur-21B-light)"/>
    <circle cx="744" cy="752" r="230" fill="#fff" opacity=".08" filter="url(#blur-21B-light)"/>
    <rect x="94" y="94" width="836" height="836" rx="198" fill="rgba(255,255,255,.66)" stroke="rgba(10,64,70,.24)" stroke-width="10" filter="url(#softShadow-21B-light)"/>
    <rect x="112" y="112" width="800" height="800" rx="180" fill="url(#glassGlow-21B-light)"/>
    <path d="M300 225 H730 L668 770 H362 Z" fill="rgba(255,255,255,.24)" stroke="#10363b" stroke-width="31" opacity=".82" stroke-linejoin="round"/>
    <path d="M350 510 C462 432 555 570 680 490 L642 740 H385 Z" fill="url(#urine-21B-light)" opacity=".90"/>
    <path d="M350 398 C462 322 560 458 692 384 L680 490 C555 570 462 432 350 510 Z" fill="url(#water-21B-light)" opacity=".82"/>
    <path d="M366 395 C472 338 553 458 674 396" fill="none" stroke="#ffffff" stroke-width="9" stroke-linecap="round" opacity=".22"/>
    <path d="M336 325 H392" stroke="#10363b" stroke-width="17" stroke-linecap="round" opacity=".36"/>
    <path d="M336 418 H392" stroke="#10363b" stroke-width="17" stroke-linecap="round" opacity=".36"/>
    <path d="M336 511 H392" stroke="#10363b" stroke-width="17" stroke-linecap="round" opacity=".36"/>
    <path d="M336 604 H392" stroke="#10363b" stroke-width="17" stroke-linecap="round" opacity=".36"/>
    <path d="M512 300 V500 M412 400 H612" stroke="#10363b" stroke-width="56" stroke-linecap="round" opacity=".72"/>
    <path d="M170 178 C340 94 660 88 850 220" fill="none" stroke="#fff" stroke-width="18" stroke-linecap="round" opacity=".36"/>
    <path d="M380 280 C466 238 570 250 652 304" fill="none" stroke="#fff" stroke-width="16" stroke-linecap="round" opacity=".36"/>
    <path d="M245 800 C380 884 626 890 784 786" fill="none" stroke="#fff" stroke-width="12" stroke-linecap="round" opacity=".13"/>
  
</svg>
